<?xml version="1.0" encoding="UTF-8" standalone="no"?>
<!DOCTYPE svg PUBLIC "-//W3C//DTD SVG 20010904//EN"
"http://www.w3.org/TR/2001/REC-SVG-20010904/DTD/svg10.dtd"><svg height="2000" width="2000" version="1.1" xmlns="http://www.w3.org/2000/svg" xmlns:xlink="http://www.w3.org/1999/xlink" xml:space="preserve">
<line x1="460" y1="400" x2="400" y2="400" style="stroke:rgb(255,0,0);stroke-width:2" />
<line x1="410" y1="400" x2="460" y2="400" style="stroke:rgb(255,0,0);stroke-width:2" />
<line x1="410" y1="460" x2="410" y2="400" style="stroke:rgb(255,0,0);stroke-width:2" />
<line x1="360" y1="460" x2="410" y2="460" style="stroke:rgb(255,0,0);stroke-width:2" />
<line x1="310" y1="460" x2="360" y2="460" style="stroke:rgb(255,0,0);stroke-width:2" />
<line x1="370" y1="460" x2="310" y2="460" style="stroke:rgb(255,0,0);stroke-width:2" />
<line x1="430" y1="460" x2="370" y2="460" style="stroke:rgb(255,0,0);stroke-width:2" />
<line x1="380" y1="460" x2="430" y2="460" style="stroke:rgb(255,0,0);stroke-width:2" />
<line x1="380" y1="520" x2="380" y2="460" style="stroke:rgb(255,0,0);stroke-width:2" />
<line x1="330" y1="520" x2="380" y2="520" style="stroke:rgb(255,0,0);stroke-width:2" />
<line x1="330" y1="470" x2="330" y2="520" style="stroke:rgb(255,0,0);stroke-width:2" />
<line x1="390" y1="470" x2="330" y2="470" style="stroke:rgb(255,0,0);stroke-width:2" />
<line x1="450" y1="470" x2="390" y2="470" style="stroke:rgb(255,0,0);stroke-width:2" />
<line x1="400" y1="470" x2="450" y2="470" style="stroke:rgb(255,0,0);stroke-width:2" />
<line x1="400" y1="530" x2="400" y2="470" style="stroke:rgb(255,0,0);stroke-width:2" />
<line x1="400" y1="480" x2="400" y2="530" style="stroke:rgb(255,0,0);stroke-width:2" />
<line x1="460" y1="480" x2="400" y2="480" style="stroke:rgb(255,0,0);stroke-width:2" />
<line x1="410" y1="480" x2="460" y2="480" style="stroke:rgb(255,0,0);stroke-width:2" />
<line x1="410" y1="430" x2="410" y2="480" style="stroke:rgb(255,0,0);stroke-width:2" />
<line x1="470" y1="430" x2="410" y2="430" style="stroke:rgb(255,0,0);stroke-width:2" />
<line x1="470" y1="380" x2="470" y2="430" style="stroke:rgb(255,0,0);stroke-width:2" />
<line x1="530" y1="380" x2="470" y2="380" style="stroke:rgb(255,0,0);stroke-width:2" />
<line x1="590" y1="380" x2="530" y2="380" style="stroke:rgb(255,0,0);stroke-width:2" />
<line x1="540" y1="380" x2="590" y2="380" style="stroke:rgb(255,0,0);stroke-width:2" />
<line x1="540" y1="440" x2="540" y2="380" style="stroke:rgb(255,0,0);stroke-width:2" />
<line x1="600" y1="440" x2="540" y2="440" style="stroke:rgb(255,0,0);stroke-width:2" />
<line x1="550" y1="440" x2="600" y2="440" style="stroke:rgb(255,0,0);stroke-width:2" />
<line x1="550" y1="500" x2="550" y2="440" style="stroke:rgb(255,0,0);stroke-width:2" />
<line x1="550" y1="450" x2="550" y2="500" style="stroke:rgb(255,0,0);stroke-width:2" />
<line x1="610" y1="450" x2="550" y2="450" style="stroke:rgb(255,0,0);stroke-width:2" />
<line x1="560" y1="450" x2="610" y2="450" style="stroke:rgb(255,0,0);stroke-width:2" />
<line x1="560" y1="400" x2="560" y2="450" style="stroke:rgb(255,0,0);stroke-width:2" />
<line x1="620" y1="400" x2="560" y2="400" style="stroke:rgb(255,0,0);stroke-width:2" />
<line x1="570" y1="400" x2="620" y2="400" style="stroke:rgb(255,0,0);stroke-width:2" />
<line x1="520" y1="400" x2="570" y2="400" style="stroke:rgb(255,0,0);stroke-width:2" />
<line x1="580" y1="400" x2="520" y2="400" style="stroke:rgb(255,0,0);stroke-width:2" />
<line x1="640" y1="400" x2="580" y2="400" style="stroke:rgb(255,0,0);stroke-width:2" />
<line x1="590" y1="400" x2="640" y2="400" style="stroke:rgb(255,0,0);stroke-width:2" />
<line x1="590" y1="460" x2="590" y2="400" style="stroke:rgb(255,0,0);stroke-width:2" />
<line x1="650" y1="460" x2="590" y2="460" style="stroke:rgb(255,0,0);stroke-width:2" />
<line x1="600" y1="460" x2="650" y2="460" style="stroke:rgb(255,0,0);stroke-width:2" />
<line x1="600" y1="520" x2="600" y2="460" style="stroke:rgb(255,0,0);stroke-width:2" />
<line x1="600" y1="470" x2="600" y2="520" style="stroke:rgb(255,0,0);stroke-width:2" />
<line x1="660" y1="470" x2="600" y2="470" style="stroke:rgb(255,0,0);stroke-width:2" />
<line x1="610" y1="470" x2="660" y2="470" style="stroke:rgb(255,0,0);stroke-width:2" />
<line x1="610" y1="420" x2="610" y2="470" style="stroke:rgb(255,0,0);stroke-width:2" />
<line x1="670" y1="420" x2="610" y2="420" style="stroke:rgb(255,0,0);stroke-width:2" />
<line x1="670" y1="370" x2="670" y2="420" style="stroke:rgb(255,0,0);stroke-width:2" />
<line x1="730" y1="370" x2="670" y2="370" style="stroke:rgb(255,0,0);stroke-width:2" />
<line x1="790" y1="370" x2="730" y2="370" style="stroke:rgb(255,0,0);stroke-width:2" />
<line x1="740" y1="370" x2="790" y2="370" style="stroke:rgb(255,0,0);stroke-width:2" />
<line x1="740" y1="430" x2="740" y2="370" style="stroke:rgb(255,0,0);stroke-width:2" />
<line x1="800" y1="430" x2="740" y2="430" style="stroke:rgb(255,0,0);stroke-width:2" />
<line x1="750" y1="430" x2="800" y2="430" style="stroke:rgb(255,0,0);stroke-width:2" />
<line x1="750" y1="490" x2="750" y2="430" style="stroke:rgb(255,0,0);stroke-width:2" />
<line x1="750" y1="440" x2="750" y2="490" style="stroke:rgb(255,0,0);stroke-width:2" />
<line x1="810" y1="440" x2="750" y2="440" style="stroke:rgb(255,0,0);stroke-width:2" />
<line x1="760" y1="440" x2="810" y2="440" style="stroke:rgb(255,0,0);stroke-width:2" />
<line x1="760" y1="390" x2="760" y2="440" style="stroke:rgb(255,0,0);stroke-width:2" />
<line x1="820" y1="390" x2="760" y2="390" style="stroke:rgb(255,0,0);stroke-width:2" />
<line x1="770" y1="390" x2="820" y2="390" style="stroke:rgb(255,0,0);stroke-width:2" />
<line x1="720" y1="390" x2="770" y2="390" style="stroke:rgb(255,0,0);stroke-width:2" />
<line x1="780" y1="390" x2="720" y2="390" style="stroke:rgb(255,0,0);stroke-width:2" />
<line x1="840" y1="390" x2="780" y2="390" style="stroke:rgb(255,0,0);stroke-width:2" />
<line x1="790" y1="390" x2="840" y2="390" style="stroke:rgb(255,0,0);stroke-width:2" />
<line x1="790" y1="450" x2="790" y2="390" style="stroke:rgb(255,0,0);stroke-width:2" />
<line x1="850" y1="450" x2="790" y2="450" style="stroke:rgb(255,0,0);stroke-width:2" />
<line x1="800" y1="450" x2="850" y2="450" style="stroke:rgb(255,0,0);stroke-width:2" />
<line x1="800" y1="510" x2="800" y2="450" style="stroke:rgb(255,0,0);stroke-width:2" />
<line x1="800" y1="460" x2="800" y2="510" style="stroke:rgb(255,0,0);stroke-width:2" />
<line x1="860" y1="460" x2="800" y2="460" style="stroke:rgb(255,0,0);stroke-width:2" />
<line x1="810" y1="460" x2="860" y2="460" style="stroke:rgb(255,0,0);stroke-width:2" />
<line x1="760" y1="460" x2="810" y2="460" style="stroke:rgb(255,0,0);stroke-width:2" />
<line x1="710" y1="460" x2="760" y2="460" style="stroke:rgb(255,0,0);stroke-width:2" />
<line x1="770" y1="460" x2="710" y2="460" style="stroke:rgb(255,0,0);stroke-width:2" />
<line x1="830" y1="460" x2="770" y2="460" style="stroke:rgb(255,0,0);stroke-width:2" />
<line x1="780" y1="460" x2="830" y2="460" style="stroke:rgb(255,0,0);stroke-width:2" />
<line x1="780" y1="520" x2="780" y2="460" style="stroke:rgb(255,0,0);stroke-width:2" />
<line x1="780" y1="470" x2="780" y2="520" style="stroke:rgb(255,0,0);stroke-width:2" />
<line x1="840" y1="470" x2="780" y2="470" style="stroke:rgb(255,0,0);stroke-width:2" />
<line x1="790" y1="470" x2="840" y2="470" style="stroke:rgb(255,0,0);stroke-width:2" />
<line x1="740" y1="470" x2="790" y2="470" style="stroke:rgb(255,0,0);stroke-width:2" />
<line x1="800" y1="470" x2="740" y2="470" style="stroke:rgb(255,0,0);stroke-width:2" />
<line x1="860" y1="470" x2="800" y2="470" style="stroke:rgb(255,0,0);stroke-width:2" />
<line x1="810" y1="470" x2="860" y2="470" style="stroke:rgb(255,0,0);stroke-width:2" />
<line x1="810" y1="530" x2="810" y2="470" style="stroke:rgb(255,0,0);stroke-width:2" />
<line x1="760" y1="530" x2="810" y2="530" style="stroke:rgb(255,0,0);stroke-width:2" />
<line x1="710" y1="530" x2="760" y2="530" style="stroke:rgb(255,0,0);stroke-width:2" />
<line x1="770" y1="530" x2="710" y2="530" style="stroke:rgb(255,0,0);stroke-width:2" />
<line x1="830" y1="530" x2="770" y2="530" style="stroke:rgb(255,0,0);stroke-width:2" />
<line x1="780" y1="530" x2="830" y2="530" style="stroke:rgb(255,0,0);stroke-width:2" />
<line x1="780" y1="590" x2="780" y2="530" style="stroke:rgb(255,0,0);stroke-width:2" />
<line x1="840" y1="590" x2="780" y2="590" style="stroke:rgb(255,0,0);stroke-width:2" />
<line x1="790" y1="590" x2="840" y2="590" style="stroke:rgb(255,0,0);stroke-width:2" />
<line x1="790" y1="650" x2="790" y2="590" style="stroke:rgb(255,0,0);stroke-width:2" />
<line x1="790" y1="600" x2="790" y2="650" style="stroke:rgb(255,0,0);stroke-width:2" />
<line x1="850" y1="600" x2="790" y2="600" style="stroke:rgb(255,0,0);stroke-width:2" />
<line x1="800" y1="600" x2="850" y2="600" style="stroke:rgb(255,0,0);stroke-width:2" />
<line x1="860" y1="600" x2="800" y2="600" style="stroke:rgb(255,0,0);stroke-width:2" />
<line x1="810" y1="600" x2="860" y2="600" style="stroke:rgb(255,0,0);stroke-width:2" />
<line x1="810" y1="660" x2="810" y2="600" style="stroke:rgb(255,0,0);stroke-width:2" />
<line x1="810" y1="610" x2="810" y2="660" style="stroke:rgb(255,0,0);stroke-width:2" />
<line x1="870" y1="610" x2="810" y2="610" style="stroke:rgb(255,0,0);stroke-width:2" />
<line x1="820" y1="610" x2="870" y2="610" style="stroke:rgb(255,0,0);stroke-width:2" />
<line x1="770" y1="610" x2="820" y2="610" style="stroke:rgb(255,0,0);stroke-width:2" />
<line x1="720" y1="610" x2="770" y2="610" style="stroke:rgb(255,0,0);stroke-width:2" />
<line x1="780" y1="610" x2="720" y2="610" style="stroke:rgb(255,0,0);stroke-width:2" />
<line x1="840" y1="610" x2="780" y2="610" style="stroke:rgb(255,0,0);stroke-width:2" />
<line x1="790" y1="610" x2="840" y2="610" style="stroke:rgb(255,0,0);stroke-width:2" />
<line x1="790" y1="670" x2="790" y2="610" style="stroke:rgb(255,0,0);stroke-width:2" />
<line x1="790" y1="620" x2="790" y2="670" style="stroke:rgb(255,0,0);stroke-width:2" />
<line x1="850" y1="620" x2="790" y2="620" style="stroke:rgb(255,0,0);stroke-width:2" />
<line x1="800" y1="620" x2="850" y2="620" style="stroke:rgb(255,0,0);stroke-width:2" />
<line x1="750" y1="620" x2="800" y2="620" style="stroke:rgb(255,0,0);stroke-width:2" />
<line x1="810" y1="620" x2="750" y2="620" style="stroke:rgb(255,0,0);stroke-width:2" />
<line x1="870" y1="620" x2="810" y2="620" style="stroke:rgb(255,0,0);stroke-width:2" />
<line x1="820" y1="620" x2="870" y2="620" style="stroke:rgb(255,0,0);stroke-width:2" />
<line x1="820" y1="680" x2="820" y2="620" style="stroke:rgb(255,0,0);stroke-width:2" />
<line x1="820" y1="630" x2="820" y2="680" style="stroke:rgb(255,0,0);stroke-width:2" />
<line x1="880" y1="630" x2="820" y2="630" style="stroke:rgb(255,0,0);stroke-width:2" />
<line x1="880" y1="580" x2="880" y2="630" style="stroke:rgb(255,0,0);stroke-width:2" />
<line x1="940" y1="580" x2="880" y2="580" style="stroke:rgb(255,0,0);stroke-width:2" />
<line x1="1000" y1="580" x2="940" y2="580" style="stroke:rgb(255,0,0);stroke-width:2" />
<line x1="950" y1="580" x2="1000" y2="580" style="stroke:rgb(255,0,0);stroke-width:2" />
<line x1="950" y1="640" x2="950" y2="580" style="stroke:rgb(255,0,0);stroke-width:2" />
<line x1="1010" y1="640" x2="950" y2="640" style="stroke:rgb(255,0,0);stroke-width:2" />
<line x1="960" y1="640" x2="1010" y2="640" style="stroke:rgb(255,0,0);stroke-width:2" />
<line x1="960" y1="700" x2="960" y2="640" style="stroke:rgb(255,0,0);stroke-width:2" />
<line x1="960" y1="650" x2="960" y2="700" style="stroke:rgb(255,0,0);stroke-width:2" />
<line x1="1020" y1="650" x2="960" y2="650" style="stroke:rgb(255,0,0);stroke-width:2" />
<line x1="970" y1="650" x2="1020" y2="650" style="stroke:rgb(255,0,0);stroke-width:2" />
<line x1="1030" y1="650" x2="970" y2="650" style="stroke:rgb(255,0,0);stroke-width:2" />
<line x1="980" y1="650" x2="1030" y2="650" style="stroke:rgb(255,0,0);stroke-width:2" />
<line x1="980" y1="710" x2="980" y2="650" style="stroke:rgb(255,0,0);stroke-width:2" />
<line x1="980" y1="660" x2="980" y2="710" style="stroke:rgb(255,0,0);stroke-width:2" />
<line x1="1040" y1="660" x2="980" y2="660" style="stroke:rgb(255,0,0);stroke-width:2" />
<line x1="990" y1="660" x2="1040" y2="660" style="stroke:rgb(255,0,0);stroke-width:2" />
<line x1="990" y1="610" x2="990" y2="660" style="stroke:rgb(255,0,0);stroke-width:2" />
<line x1="1050" y1="610" x2="990" y2="610" style="stroke:rgb(255,0,0);stroke-width:2" />
<line x1="1050" y1="560" x2="1050" y2="610" style="stroke:rgb(255,0,0);stroke-width:2" />
<line x1="1110" y1="560" x2="1050" y2="560" style="stroke:rgb(255,0,0);stroke-width:2" />
<line x1="1170" y1="560" x2="1110" y2="560" style="stroke:rgb(255,0,0);stroke-width:2" />
<line x1="1120" y1="560" x2="1170" y2="560" style="stroke:rgb(255,0,0);stroke-width:2" />
<line x1="1120" y1="620" x2="1120" y2="560" style="stroke:rgb(255,0,0);stroke-width:2" />
<line x1="1180" y1="620" x2="1120" y2="620" style="stroke:rgb(255,0,0);stroke-width:2" />
<line x1="1130" y1="620" x2="1180" y2="620" style="stroke:rgb(255,0,0);stroke-width:2" />
<line x1="1130" y1="680" x2="1130" y2="620" style="stroke:rgb(255,0,0);stroke-width:2" />
<line x1="1130" y1="630" x2="1130" y2="680" style="stroke:rgb(255,0,0);stroke-width:2" />
<line x1="1190" y1="630" x2="1130" y2="630" style="stroke:rgb(255,0,0);stroke-width:2" />
<line x1="1140" y1="630" x2="1190" y2="630" style="stroke:rgb(255,0,0);stroke-width:2" />
<line x1="1140" y1="580" x2="1140" y2="630" style="stroke:rgb(255,0,0);stroke-width:2" />
<line x1="1200" y1="580" x2="1140" y2="580" style="stroke:rgb(255,0,0);stroke-width:2" />
<line x1="1150" y1="580" x2="1200" y2="580" style="stroke:rgb(255,0,0);stroke-width:2" />
<line x1="1100" y1="580" x2="1150" y2="580" style="stroke:rgb(255,0,0);stroke-width:2" />
<line x1="1160" y1="580" x2="1100" y2="580" style="stroke:rgb(255,0,0);stroke-width:2" />
<line x1="1220" y1="580" x2="1160" y2="580" style="stroke:rgb(255,0,0);stroke-width:2" />
<line x1="1170" y1="580" x2="1220" y2="580" style="stroke:rgb(255,0,0);stroke-width:2" />
<line x1="1170" y1="640" x2="1170" y2="580" style="stroke:rgb(255,0,0);stroke-width:2" />
<line x1="1230" y1="640" x2="1170" y2="640" style="stroke:rgb(255,0,0);stroke-width:2" />
<line x1="1180" y1="640" x2="1230" y2="640" style="stroke:rgb(255,0,0);stroke-width:2" />
<line x1="1180" y1="700" x2="1180" y2="640" style="stroke:rgb(255,0,0);stroke-width:2" />
<line x1="1180" y1="650" x2="1180" y2="700" style="stroke:rgb(255,0,0);stroke-width:2" />
<line x1="1240" y1="650" x2="1180" y2="650" style="stroke:rgb(255,0,0);stroke-width:2" />
<line x1="1190" y1="650" x2="1240" y2="650" style="stroke:rgb(255,0,0);stroke-width:2" />
<line x1="1140" y1="650" x2="1190" y2="650" style="stroke:rgb(255,0,0);stroke-width:2" />
<line x1="1090" y1="650" x2="1140" y2="650" style="stroke:rgb(255,0,0);stroke-width:2" />
<line x1="1150" y1="650" x2="1090" y2="650" style="stroke:rgb(255,0,0);stroke-width:2" />
<line x1="1210" y1="650" x2="1150" y2="650" style="stroke:rgb(255,0,0);stroke-width:2" />
<line x1="1160" y1="650" x2="1210" y2="650" style="stroke:rgb(255,0,0);stroke-width:2" />
<line x1="1160" y1="710" x2="1160" y2="650" style="stroke:rgb(255,0,0);stroke-width:2" />
<line x1="1160" y1="660" x2="1160" y2="710" style="stroke:rgb(255,0,0);stroke-width:2" />
<line x1="1220" y1="660" x2="1160" y2="660" style="stroke:rgb(255,0,0);stroke-width:2" />
<line x1="1170" y1="660" x2="1220" y2="660" style="stroke:rgb(255,0,0);stroke-width:2" />
<line x1="1120" y1="660" x2="1170" y2="660" style="stroke:rgb(255,0,0);stroke-width:2" />
<line x1="1180" y1="660" x2="1120" y2="660" style="stroke:rgb(255,0,0);stroke-width:2" />
<line x1="1240" y1="660" x2="1180" y2="660" style="stroke:rgb(255,0,0);stroke-width:2" />
<line x1="1190" y1="660" x2="1240" y2="660" style="stroke:rgb(255,0,0);stroke-width:2" />
<line x1="1190" y1="720" x2="1190" y2="660" style="stroke:rgb(255,0,0);stroke-width:2" />
<line x1="1140" y1="720" x2="1190" y2="720" style="stroke:rgb(255,0,0);stroke-width:2" />
<line x1="1090" y1="720" x2="1140" y2="720" style="stroke:rgb(255,0,0);stroke-width:2" />
<line x1="1150" y1="720" x2="1090" y2="720" style="stroke:rgb(255,0,0);stroke-width:2" />
<line x1="1210" y1="720" x2="1150" y2="720" style="stroke:rgb(255,0,0);stroke-width:2" />
<line x1="1160" y1="720" x2="1210" y2="720" style="stroke:rgb(255,0,0);stroke-width:2" />
<line x1="1160" y1="780" x2="1160" y2="720" style="stroke:rgb(255,0,0);stroke-width:2" />
<line x1="1220" y1="780" x2="1160" y2="780" style="stroke:rgb(255,0,0);stroke-width:2" />
<line x1="1170" y1="780" x2="1220" y2="780" style="stroke:rgb(255,0,0);stroke-width:2" />
<line x1="1170" y1="840" x2="1170" y2="780" style="stroke:rgb(255,0,0);stroke-width:2" />
<line x1="1170" y1="790" x2="1170" y2="840" style="stroke:rgb(255,0,0);stroke-width:2" />
<line x1="1230" y1="790" x2="1170" y2="790" style="stroke:rgb(255,0,0);stroke-width:2" />
<line x1="1180" y1="790" x2="1230" y2="790" style="stroke:rgb(255,0,0);stroke-width:2" />
<line x1="1240" y1="790" x2="1180" y2="790" style="stroke:rgb(255,0,0);stroke-width:2" />
<line x1="1190" y1="790" x2="1240" y2="790" style="stroke:rgb(255,0,0);stroke-width:2" />
<line x1="1190" y1="850" x2="1190" y2="790" style="stroke:rgb(255,0,0);stroke-width:2" />
<line x1="1190" y1="800" x2="1190" y2="850" style="stroke:rgb(255,0,0);stroke-width:2" />
<line x1="1250" y1="800" x2="1190" y2="800" style="stroke:rgb(255,0,0);stroke-width:2" />
<line x1="1200" y1="800" x2="1250" y2="800" style="stroke:rgb(255,0,0);stroke-width:2" />
<line x1="1150" y1="800" x2="1200" y2="800" style="stroke:rgb(255,0,0);stroke-width:2" />
<line x1="1100" y1="800" x2="1150" y2="800" style="stroke:rgb(255,0,0);stroke-width:2" />
<line x1="1160" y1="800" x2="1100" y2="800" style="stroke:rgb(255,0,0);stroke-width:2" />
<line x1="1220" y1="800" x2="1160" y2="800" style="stroke:rgb(255,0,0);stroke-width:2" />
<line x1="1170" y1="800" x2="1220" y2="800" style="stroke:rgb(255,0,0);stroke-width:2" />
<line x1="1170" y1="860" x2="1170" y2="800" style="stroke:rgb(255,0,0);stroke-width:2" />
<line x1="1170" y1="810" x2="1170" y2="860" style="stroke:rgb(255,0,0);stroke-width:2" />
<line x1="1230" y1="810" x2="1170" y2="810" style="stroke:rgb(255,0,0);stroke-width:2" />
<line x1="1180" y1="810" x2="1230" y2="810" style="stroke:rgb(255,0,0);stroke-width:2" />
<line x1="1130" y1="810" x2="1180" y2="810" style="stroke:rgb(255,0,0);stroke-width:2" />
<line x1="1190" y1="810" x2="1130" y2="810" style="stroke:rgb(255,0,0);stroke-width:2" />
<line x1="1250" y1="810" x2="1190" y2="810" style="stroke:rgb(255,0,0);stroke-width:2" />
<line x1="1200" y1="810" x2="1250" y2="810" style="stroke:rgb(255,0,0);stroke-width:2" />
<line x1="1200" y1="870" x2="1200" y2="810" style="stroke:rgb(255,0,0);stroke-width:2" />
<line x1="1200" y1="820" x2="1200" y2="870" style="stroke:rgb(255,0,0);stroke-width:2" />
<line x1="1260" y1="820" x2="1200" y2="820" style="stroke:rgb(255,0,0);stroke-width:2" />
<line x1="1260" y1="770" x2="1260" y2="820" style="stroke:rgb(255,0,0);stroke-width:2" />
<line x1="1320" y1="770" x2="1260" y2="770" style="stroke:rgb(255,0,0);stroke-width:2" />
<line x1="1380" y1="770" x2="1320" y2="770" style="stroke:rgb(255,0,0);stroke-width:2" />
<line x1="1330" y1="770" x2="1380" y2="770" style="stroke:rgb(255,0,0);stroke-width:2" />
<line x1="1330" y1="830" x2="1330" y2="770" style="stroke:rgb(255,0,0);stroke-width:2" />
<line x1="1390" y1="830" x2="1330" y2="830" style="stroke:rgb(255,0,0);stroke-width:2" />
<line x1="1340" y1="830" x2="1390" y2="830" style="stroke:rgb(255,0,0);stroke-width:2" />
<line x1="1340" y1="890" x2="1340" y2="830" style="stroke:rgb(255,0,0);stroke-width:2" />
<line x1="1340" y1="840" x2="1340" y2="890" style="stroke:rgb(255,0,0);stroke-width:2" />
<line x1="1400" y1="840" x2="1340" y2="840" style="stroke:rgb(255,0,0);stroke-width:2" />
<line x1="1350" y1="840" x2="1400" y2="840" style="stroke:rgb(255,0,0);stroke-width:2" />
<line x1="1410" y1="840" x2="1350" y2="840" style="stroke:rgb(255,0,0);stroke-width:2" />
<line x1="1360" y1="840" x2="1410" y2="840" style="stroke:rgb(255,0,0);stroke-width:2" />
<line x1="1360" y1="900" x2="1360" y2="840" style="stroke:rgb(255,0,0);stroke-width:2" />
<line x1="1360" y1="850" x2="1360" y2="900" style="stroke:rgb(255,0,0);stroke-width:2" />
<line x1="1420" y1="850" x2="1360" y2="850" style="stroke:rgb(255,0,0);stroke-width:2" />
<line x1="1370" y1="850" x2="1420" y2="850" style="stroke:rgb(255,0,0);stroke-width:2" />
<line x1="1320" y1="850" x2="1370" y2="850" style="stroke:rgb(255,0,0);stroke-width:2" />
<line x1="1270" y1="850" x2="1320" y2="850" style="stroke:rgb(255,0,0);stroke-width:2" />
<line x1="1330" y1="850" x2="1270" y2="850" style="stroke:rgb(255,0,0);stroke-width:2" />
<line x1="1390" y1="850" x2="1330" y2="850" style="stroke:rgb(255,0,0);stroke-width:2" />
<line x1="1340" y1="850" x2="1390" y2="850" style="stroke:rgb(255,0,0);stroke-width:2" />
<line x1="1340" y1="910" x2="1340" y2="850" style="stroke:rgb(255,0,0);stroke-width:2" />
<line x1="1340" y1="860" x2="1340" y2="910" style="stroke:rgb(255,0,0);stroke-width:2" />
<line x1="1400" y1="860" x2="1340" y2="860" style="stroke:rgb(255,0,0);stroke-width:2" />
<line x1="1350" y1="860" x2="1400" y2="860" style="stroke:rgb(255,0,0);stroke-width:2" />
<line x1="1300" y1="860" x2="1350" y2="860" style="stroke:rgb(255,0,0);stroke-width:2" />
<line x1="1360" y1="860" x2="1300" y2="860" style="stroke:rgb(255,0,0);stroke-width:2" />
<line x1="1420" y1="860" x2="1360" y2="860" style="stroke:rgb(255,0,0);stroke-width:2" />
<line x1="1370" y1="860" x2="1420" y2="860" style="stroke:rgb(255,0,0);stroke-width:2" />
<line x1="1370" y1="920" x2="1370" y2="860" style="stroke:rgb(255,0,0);stroke-width:2" />
<line x1="1320" y1="920" x2="1370" y2="920" style="stroke:rgb(255,0,0);stroke-width:2" />
<line x1="1270" y1="920" x2="1320" y2="920" style="stroke:rgb(255,0,0);stroke-width:2" />
<line x1="1330" y1="920" x2="1270" y2="920" style="stroke:rgb(255,0,0);stroke-width:2" />
<line x1="1390" y1="920" x2="1330" y2="920" style="stroke:rgb(255,0,0);stroke-width:2" />
<line x1="1340" y1="920" x2="1390" y2="920" style="stroke:rgb(255,0,0);stroke-width:2" />
<line x1="1340" y1="980" x2="1340" y2="920" style="stroke:rgb(255,0,0);stroke-width:2" />
<line x1="1400" y1="980" x2="1340" y2="980" style="stroke:rgb(255,0,0);stroke-width:2" />
<line x1="1350" y1="980" x2="1400" y2="980" style="stroke:rgb(255,0,0);stroke-width:2" />
<line x1="1350" y1="1040" x2="1350" y2="980" style="stroke:rgb(255,0,0);stroke-width:2" />
<line x1="1350" y1="990" x2="1350" y2="1040" style="stroke:rgb(255,0,0);stroke-width:2" />
<line x1="1410" y1="990" x2="1350" y2="990" style="stroke:rgb(255,0,0);stroke-width:2" />
<line x1="1360" y1="990" x2="1410" y2="990" style="stroke:rgb(255,0,0);stroke-width:2" />
<line x1="1420" y1="990" x2="1360" y2="990" style="stroke:rgb(255,0,0);stroke-width:2" />
<line x1="1370" y1="990" x2="1420" y2="990" style="stroke:rgb(255,0,0);stroke-width:2" />
<line x1="1370" y1="1050" x2="1370" y2="990" style="stroke:rgb(255,0,0);stroke-width:2" />
<line x1="1370" y1="1000" x2="1370" y2="1050" style="stroke:rgb(255,0,0);stroke-width:2" />
<line x1="1430" y1="1000" x2="1370" y2="1000" style="stroke:rgb(255,0,0);stroke-width:2" />
<line x1="1380" y1="1000" x2="1430" y2="1000" style="stroke:rgb(255,0,0);stroke-width:2" />
<line x1="1330" y1="1000" x2="1380" y2="1000" style="stroke:rgb(255,0,0);stroke-width:2" />
<line x1="1280" y1="1000" x2="1330" y2="1000" style="stroke:rgb(255,0,0);stroke-width:2" />
<line x1="1340" y1="1000" x2="1280" y2="1000" style="stroke:rgb(255,0,0);stroke-width:2" />
<line x1="1400" y1="1000" x2="1340" y2="1000" style="stroke:rgb(255,0,0);stroke-width:2" />
<line x1="1350" y1="1000" x2="1400" y2="1000" style="stroke:rgb(255,0,0);stroke-width:2" />
<line x1="1350" y1="1060" x2="1350" y2="1000" style="stroke:rgb(255,0,0);stroke-width:2" />
<line x1="1350" y1="1010" x2="1350" y2="1060" style="stroke:rgb(255,0,0);stroke-width:2" />
<line x1="1410" y1="1010" x2="1350" y2="1010" style="stroke:rgb(255,0,0);stroke-width:2" />
<line x1="1360" y1="1010" x2="1410" y2="1010" style="stroke:rgb(255,0,0);stroke-width:2" />
<line x1="1310" y1="1010" x2="1360" y2="1010" style="stroke:rgb(255,0,0);stroke-width:2" />
<line x1="1370" y1="1010" x2="1310" y2="1010" style="stroke:rgb(255,0,0);stroke-width:2" />
<line x1="1430" y1="1010" x2="1370" y2="1010" style="stroke:rgb(255,0,0);stroke-width:2" />
<line x1="1380" y1="1010" x2="1430" y2="1010" style="stroke:rgb(255,0,0);stroke-width:2" />
<line x1="1380" y1="1070" x2="1380" y2="1010" style="stroke:rgb(255,0,0);stroke-width:2" />
<line x1="1380" y1="1020" x2="1380" y2="1070" style="stroke:rgb(255,0,0);stroke-width:2" />
<line x1="1440" y1="1020" x2="1380" y2="1020" style="stroke:rgb(255,0,0);stroke-width:2" />
<line x1="1440" y1="970" x2="1440" y2="1020" style="stroke:rgb(255,0,0);stroke-width:2" />
<line x1="1500" y1="970" x2="1440" y2="970" style="stroke:rgb(255,0,0);stroke-width:2" />
<line x1="1560" y1="970" x2="1500" y2="970" style="stroke:rgb(255,0,0);stroke-width:2" />
<line x1="1510" y1="970" x2="1560" y2="970" style="stroke:rgb(255,0,0);stroke-width:2" />
<line x1="1510" y1="1030" x2="1510" y2="970" style="stroke:rgb(255,0,0);stroke-width:2" />
<line x1="1570" y1="1030" x2="1510" y2="1030" style="stroke:rgb(255,0,0);stroke-width:2" />
<line x1="1520" y1="1030" x2="1570" y2="1030" style="stroke:rgb(255,0,0);stroke-width:2" />
<line x1="1520" y1="1090" x2="1520" y2="1030" style="stroke:rgb(255,0,0);stroke-width:2" />
<line x1="1520" y1="1040" x2="1520" y2="1090" style="stroke:rgb(255,0,0);stroke-width:2" />
<line x1="1580" y1="1040" x2="1520" y2="1040" style="stroke:rgb(255,0,0);stroke-width:2" />
<line x1="1530" y1="1040" x2="1580" y2="1040" style="stroke:rgb(255,0,0);stroke-width:2" />
<line x1="1590" y1="1040" x2="1530" y2="1040" style="stroke:rgb(255,0,0);stroke-width:2" />
<line x1="1540" y1="1040" x2="1590" y2="1040" style="stroke:rgb(255,0,0);stroke-width:2" />
<line x1="1540" y1="1100" x2="1540" y2="1040" style="stroke:rgb(255,0,0);stroke-width:2" />
<line x1="1540" y1="1050" x2="1540" y2="1100" style="stroke:rgb(255,0,0);stroke-width:2" />
<line x1="1600" y1="1050" x2="1540" y2="1050" style="stroke:rgb(255,0,0);stroke-width:2" />
<line x1="1550" y1="1050" x2="1600" y2="1050" style="stroke:rgb(255,0,0);stroke-width:2" />
<line x1="1500" y1="1050" x2="1550" y2="1050" style="stroke:rgb(255,0,0);stroke-width:2" />
<line x1="1450" y1="1050" x2="1500" y2="1050" style="stroke:rgb(255,0,0);stroke-width:2" />
<line x1="1510" y1="1050" x2="1450" y2="1050" style="stroke:rgb(255,0,0);stroke-width:2" />
<line x1="1570" y1="1050" x2="1510" y2="1050" style="stroke:rgb(255,0,0);stroke-width:2" />
<line x1="1520" y1="1050" x2="1570" y2="1050" style="stroke:rgb(255,0,0);stroke-width:2" />
<line x1="1520" y1="1110" x2="1520" y2="1050" style="stroke:rgb(255,0,0);stroke-width:2" />
<line x1="1520" y1="1060" x2="1520" y2="1110" style="stroke:rgb(255,0,0);stroke-width:2" />
<line x1="1580" y1="1060" x2="1520" y2="1060" style="stroke:rgb(255,0,0);stroke-width:2" />
<line x1="1580" y1="1010" x2="1580" y2="1060" style="stroke:rgb(255,0,0);stroke-width:2" />
<line x1="1640" y1="1010" x2="1580" y2="1010" style="stroke:rgb(255,0,0);stroke-width:2" />
<line x1="1640" y1="960" x2="1640" y2="1010" style="stroke:rgb(255,0,0);stroke-width:2" />
<line x1="1700" y1="960" x2="1640" y2="960" style="stroke:rgb(255,0,0);stroke-width:2" />
<line x1="1760" y1="960" x2="1700" y2="960" style="stroke:rgb(255,0,0);stroke-width:2" />
<line x1="1710" y1="960" x2="1760" y2="960" style="stroke:rgb(255,0,0);stroke-width:2" />
<line x1="1710" y1="1020" x2="1710" y2="960" style="stroke:rgb(255,0,0);stroke-width:2" />
<line x1="1770" y1="1020" x2="1710" y2="1020" style="stroke:rgb(255,0,0);stroke-width:2" />
<line x1="1720" y1="1020" x2="1770" y2="1020" style="stroke:rgb(255,0,0);stroke-width:2" />
<line x1="1720" y1="1080" x2="1720" y2="1020" style="stroke:rgb(255,0,0);stroke-width:2" />
<line x1="1720" y1="1030" x2="1720" y2="1080" style="stroke:rgb(255,0,0);stroke-width:2" />
<line x1="1780" y1="1030" x2="1720" y2="1030" style="stroke:rgb(255,0,0);stroke-width:2" />
<line x1="1730" y1="1030" x2="1780" y2="1030" style="stroke:rgb(255,0,0);stroke-width:2" />
<line x1="1680" y1="1030" x2="1730" y2="1030" style="stroke:rgb(255,0,0);stroke-width:2" />
<line x1="1630" y1="1030" x2="1680" y2="1030" style="stroke:rgb(255,0,0);stroke-width:2" />
<line x1="1690" y1="1030" x2="1630" y2="1030" style="stroke:rgb(255,0,0);stroke-width:2" />
<line x1="1750" y1="1030" x2="1690" y2="1030" style="stroke:rgb(255,0,0);stroke-width:2" />
<line x1="1700" y1="1030" x2="1750" y2="1030" style="stroke:rgb(255,0,0);stroke-width:2" />
<line x1="1700" y1="1090" x2="1700" y2="1030" style="stroke:rgb(255,0,0);stroke-width:2" />
<line x1="1700" y1="1040" x2="1700" y2="1090" style="stroke:rgb(255,0,0);stroke-width:2" />
<line x1="1760" y1="1040" x2="1700" y2="1040" style="stroke:rgb(255,0,0);stroke-width:2" />
<line x1="1760" y1="990" x2="1760" y2="1040" style="stroke:rgb(255,0,0);stroke-width:2" />
<line x1="1820" y1="990" x2="1760" y2="990" style="stroke:rgb(255,0,0);stroke-width:2" />
<line x1="1880" y1="990" x2="1820" y2="990" style="stroke:rgb(255,0,0);stroke-width:2" />
<line x1="1830" y1="990" x2="1880" y2="990" style="stroke:rgb(255,0,0);stroke-width:2" />
<line x1="1830" y1="1050" x2="1830" y2="990" style="stroke:rgb(255,0,0);stroke-width:2" />
<line x1="1890" y1="1050" x2="1830" y2="1050" style="stroke:rgb(255,0,0);stroke-width:2" />
<line x1="1840" y1="1050" x2="1890" y2="1050" style="stroke:rgb(255,0,0);stroke-width:2" />
<line x1="1840" y1="1110" x2="1840" y2="1050" style="stroke:rgb(255,0,0);stroke-width:2" />
<line x1="1840" y1="1060" x2="1840" y2="1110" style="stroke:rgb(255,0,0);stroke-width:2" />
<line x1="1900" y1="1060" x2="1840" y2="1060" style="stroke:rgb(255,0,0);stroke-width:2" />
<line x1="1850" y1="1060" x2="1900" y2="1060" style="stroke:rgb(255,0,0);stroke-width:2" />
<line x1="1850" y1="1010" x2="1850" y2="1060" style="stroke:rgb(255,0,0);stroke-width:2" />
<line x1="1910" y1="1010" x2="1850" y2="1010" style="stroke:rgb(255,0,0);stroke-width:2" />
<line x1="1910" y1="960" x2="1910" y2="1010" style="stroke:rgb(255,0,0);stroke-width:2" />
<line x1="1970" y1="960" x2="1910" y2="960" style="stroke:rgb(255,0,0);stroke-width:2" />
<line x1="2030" y1="960" x2="1970" y2="960" style="stroke:rgb(255,0,0);stroke-width:2" />
<line x1="1980" y1="960" x2="2030" y2="960" style="stroke:rgb(255,0,0);stroke-width:2" />
<line x1="1980" y1="1020" x2="1980" y2="960" style="stroke:rgb(255,0,0);stroke-width:2" />
<line x1="2040" y1="1020" x2="1980" y2="1020" style="stroke:rgb(255,0,0);stroke-width:2" />
<line x1="1990" y1="1020" x2="2040" y2="1020" style="stroke:rgb(255,0,0);stroke-width:2" />
<line x1="1990" y1="1080" x2="1990" y2="1020" style="stroke:rgb(255,0,0);stroke-width:2" />
<line x1="1990" y1="1030" x2="1990" y2="1080" style="stroke:rgb(255,0,0);stroke-width:2" />
<line x1="2050" y1="1030" x2="1990" y2="1030" style="stroke:rgb(255,0,0);stroke-width:2" />
<line x1="2000" y1="1030" x2="2050" y2="1030" style="stroke:rgb(255,0,0);stroke-width:2" />
<line x1="2060" y1="1030" x2="2000" y2="1030" style="stroke:rgb(255,0,0);stroke-width:2" />
<line x1="2010" y1="1030" x2="2060" y2="1030" style="stroke:rgb(255,0,0);stroke-width:2" />
<line x1="2010" y1="1090" x2="2010" y2="1030" style="stroke:rgb(255,0,0);stroke-width:2" />
<line x1="2010" y1="1040" x2="2010" y2="1090" style="stroke:rgb(255,0,0);stroke-width:2" />
<line x1="2070" y1="1040" x2="2010" y2="1040" style="stroke:rgb(255,0,0);stroke-width:2" />
<line x1="2020" y1="1040" x2="2070" y2="1040" style="stroke:rgb(255,0,0);stroke-width:2" />
<line x1="1970" y1="1040" x2="2020" y2="1040" style="stroke:rgb(255,0,0);stroke-width:2" />
<line x1="1920" y1="1040" x2="1970" y2="1040" style="stroke:rgb(255,0,0);stroke-width:2" />
<line x1="1980" y1="1040" x2="1920" y2="1040" style="stroke:rgb(255,0,0);stroke-width:2" />
<line x1="2040" y1="1040" x2="1980" y2="1040" style="stroke:rgb(255,0,0);stroke-width:2" />
<line x1="1990" y1="1040" x2="2040" y2="1040" style="stroke:rgb(255,0,0);stroke-width:2" />
<line x1="1990" y1="1100" x2="1990" y2="1040" style="stroke:rgb(255,0,0);stroke-width:2" />
<line x1="1990" y1="1050" x2="1990" y2="1100" style="stroke:rgb(255,0,0);stroke-width:2" />
<line x1="2050" y1="1050" x2="1990" y2="1050" style="stroke:rgb(255,0,0);stroke-width:2" />
<line x1="2110" y1="1050" x2="2050" y2="1050" style="stroke:rgb(255,0,0);stroke-width:2" />
<line x1="2060" y1="1050" x2="2110" y2="1050" style="stroke:rgb(255,0,0);stroke-width:2" />
<line x1="2060" y1="1110" x2="2060" y2="1050" style="stroke:rgb(255,0,0);stroke-width:2" />
<line x1="2060" y1="1060" x2="2060" y2="1110" style="stroke:rgb(255,0,0);stroke-width:2" />
<line x1="2120" y1="1060" x2="2060" y2="1060" style="stroke:rgb(255,0,0);stroke-width:2" />
<line x1="2070" y1="1060" x2="2120" y2="1060" style="stroke:rgb(255,0,0);stroke-width:2" />
<line x1="2020" y1="1060" x2="2070" y2="1060" style="stroke:rgb(255,0,0);stroke-width:2" />
<line x1="1970" y1="1060" x2="2020" y2="1060" style="stroke:rgb(255,0,0);stroke-width:2" />
<line x1="2030" y1="1060" x2="1970" y2="1060" style="stroke:rgb(255,0,0);stroke-width:2" />
<line x1="2090" y1="1060" x2="2030" y2="1060" style="stroke:rgb(255,0,0);stroke-width:2" />
<line x1="2040" y1="1060" x2="2090" y2="1060" style="stroke:rgb(255,0,0);stroke-width:2" />
<line x1="2040" y1="1120" x2="2040" y2="1060" style="stroke:rgb(255,0,0);stroke-width:2" />
<line x1="2040" y1="1070" x2="2040" y2="1120" style="stroke:rgb(255,0,0);stroke-width:2" />
<line x1="2100" y1="1070" x2="2040" y2="1070" style="stroke:rgb(255,0,0);stroke-width:2" />
<line x1="2100" y1="1020" x2="2100" y2="1070" style="stroke:rgb(255,0,0);stroke-width:2" />
<line x1="2160" y1="1020" x2="2100" y2="1020" style="stroke:rgb(255,0,0);stroke-width:2" />
<line x1="2160" y1="970" x2="2160" y2="1020" style="stroke:rgb(255,0,0);stroke-width:2" />
<line x1="2220" y1="970" x2="2160" y2="970" style="stroke:rgb(255,0,0);stroke-width:2" />
<line x1="2280" y1="970" x2="2220" y2="970" style="stroke:rgb(255,0,0);stroke-width:2" />
<line x1="2230" y1="970" x2="2280" y2="970" style="stroke:rgb(255,0,0);stroke-width:2" />
<line x1="2230" y1="1030" x2="2230" y2="970" style="stroke:rgb(255,0,0);stroke-width:2" />
<line x1="2290" y1="1030" x2="2230" y2="1030" style="stroke:rgb(255,0,0);stroke-width:2" />
<line x1="2240" y1="1030" x2="2290" y2="1030" style="stroke:rgb(255,0,0);stroke-width:2" />
<line x1="2240" y1="1090" x2="2240" y2="1030" style="stroke:rgb(255,0,0);stroke-width:2" />
<line x1="2240" y1="1040" x2="2240" y2="1090" style="stroke:rgb(255,0,0);stroke-width:2" />
<line x1="2300" y1="1040" x2="2240" y2="1040" style="stroke:rgb(255,0,0);stroke-width:2" />
<line x1="2250" y1="1040" x2="2300" y2="1040" style="stroke:rgb(255,0,0);stroke-width:2" />
<line x1="2200" y1="1040" x2="2250" y2="1040" style="stroke:rgb(255,0,0);stroke-width:2" />
<line x1="2150" y1="1040" x2="2200" y2="1040" style="stroke:rgb(255,0,0);stroke-width:2" />
<line x1="2210" y1="1040" x2="2150" y2="1040" style="stroke:rgb(255,0,0);stroke-width:2" />
<line x1="2270" y1="1040" x2="2210" y2="1040" style="stroke:rgb(255,0,0);stroke-width:2" />
<line x1="2220" y1="1040" x2="2270" y2="1040" style="stroke:rgb(255,0,0);stroke-width:2" />
<line x1="2220" y1="1100" x2="2220" y2="1040" style="stroke:rgb(255,0,0);stroke-width:2" />
<line x1="2220" y1="1050" x2="2220" y2="1100" style="stroke:rgb(255,0,0);stroke-width:2" />
<line x1="2280" y1="1050" x2="2220" y2="1050" style="stroke:rgb(255,0,0);stroke-width:2" />
<line x1="2280" y1="1000" x2="2280" y2="1050" style="stroke:rgb(255,0,0);stroke-width:2" />
<line x1="2340" y1="1000" x2="2280" y2="1000" style="stroke:rgb(255,0,0);stroke-width:2" />
<line x1="2400" y1="1000" x2="2340" y2="1000" style="stroke:rgb(255,0,0);stroke-width:2" />
<line x1="2350" y1="1000" x2="2400" y2="1000" style="stroke:rgb(255,0,0);stroke-width:2" />
<line x1="2350" y1="1060" x2="2350" y2="1000" style="stroke:rgb(255,0,0);stroke-width:2" />
<line x1="2410" y1="1060" x2="2350" y2="1060" style="stroke:rgb(255,0,0);stroke-width:2" />
<line x1="2360" y1="1060" x2="2410" y2="1060" style="stroke:rgb(255,0,0);stroke-width:2" />
<line x1="2360" y1="1120" x2="2360" y2="1060" style="stroke:rgb(255,0,0);stroke-width:2" />
<line x1="2360" y1="1070" x2="2360" y2="1120" style="stroke:rgb(255,0,0);stroke-width:2" />
<line x1="2420" y1="1070" x2="2360" y2="1070" style="stroke:rgb(255,0,0);stroke-width:2" />
<line x1="2370" y1="1070" x2="2420" y2="1070" style="stroke:rgb(255,0,0);stroke-width:2" />
<line x1="2320" y1="1070" x2="2370" y2="1070" style="stroke:rgb(255,0,0);stroke-width:2" />
<line x1="2270" y1="1070" x2="2320" y2="1070" style="stroke:rgb(255,0,0);stroke-width:2" />
<line x1="2330" y1="1070" x2="2270" y2="1070" style="stroke:rgb(255,0,0);stroke-width:2" />
<line x1="2390" y1="1070" x2="2330" y2="1070" style="stroke:rgb(255,0,0);stroke-width:2" />
<line x1="2340" y1="1070" x2="2390" y2="1070" style="stroke:rgb(255,0,0);stroke-width:2" />
<line x1="2340" y1="1130" x2="2340" y2="1070" style="stroke:rgb(255,0,0);stroke-width:2" />
<line x1="2290" y1="1130" x2="2340" y2="1130" style="stroke:rgb(255,0,0);stroke-width:2" />
<line x1="2240" y1="1130" x2="2290" y2="1130" style="stroke:rgb(255,0,0);stroke-width:2" />
<line x1="2300" y1="1130" x2="2240" y2="1130" style="stroke:rgb(255,0,0);stroke-width:2" />
<line x1="2360" y1="1130" x2="2300" y2="1130" style="stroke:rgb(255,0,0);stroke-width:2" />
<line x1="2310" y1="1130" x2="2360" y2="1130" style="stroke:rgb(255,0,0);stroke-width:2" />
<line x1="2310" y1="1190" x2="2310" y2="1130" style="stroke:rgb(255,0,0);stroke-width:2" />
<line x1="2370" y1="1190" x2="2310" y2="1190" style="stroke:rgb(255,0,0);stroke-width:2" />
<line x1="2320" y1="1190" x2="2370" y2="1190" style="stroke:rgb(255,0,0);stroke-width:2" />
<line x1="2320" y1="1250" x2="2320" y2="1190" style="stroke:rgb(255,0,0);stroke-width:2" />
<line x1="2320" y1="1200" x2="2320" y2="1250" style="stroke:rgb(255,0,0);stroke-width:2" />
<line x1="2380" y1="1200" x2="2320" y2="1200" style="stroke:rgb(255,0,0);stroke-width:2" />
<line x1="2330" y1="1200" x2="2380" y2="1200" style="stroke:rgb(255,0,0);stroke-width:2" />
<line x1="2390" y1="1200" x2="2330" y2="1200" style="stroke:rgb(255,0,0);stroke-width:2" />
<line x1="2340" y1="1200" x2="2390" y2="1200" style="stroke:rgb(255,0,0);stroke-width:2" />
<line x1="2340" y1="1260" x2="2340" y2="1200" style="stroke:rgb(255,0,0);stroke-width:2" />
<line x1="2340" y1="1210" x2="2340" y2="1260" style="stroke:rgb(255,0,0);stroke-width:2" />
<line x1="2400" y1="1210" x2="2340" y2="1210" style="stroke:rgb(255,0,0);stroke-width:2" />
<line x1="2350" y1="1210" x2="2400" y2="1210" style="stroke:rgb(255,0,0);stroke-width:2" />
<line x1="2300" y1="1210" x2="2350" y2="1210" style="stroke:rgb(255,0,0);stroke-width:2" />
<line x1="2250" y1="1210" x2="2300" y2="1210" style="stroke:rgb(255,0,0);stroke-width:2" />
<line x1="2310" y1="1210" x2="2250" y2="1210" style="stroke:rgb(255,0,0);stroke-width:2" />
<line x1="2370" y1="1210" x2="2310" y2="1210" style="stroke:rgb(255,0,0);stroke-width:2" />
<line x1="2320" y1="1210" x2="2370" y2="1210" style="stroke:rgb(255,0,0);stroke-width:2" />
<line x1="2320" y1="1270" x2="2320" y2="1210" style="stroke:rgb(255,0,0);stroke-width:2" />
<line x1="2320" y1="1220" x2="2320" y2="1270" style="stroke:rgb(255,0,0);stroke-width:2" />
<line x1="2380" y1="1220" x2="2320" y2="1220" style="stroke:rgb(255,0,0);stroke-width:2" />
</svg>